<?xml version="1.0" encoding="UTF-8"?>
<svg version="1.1" xmlns="http://www.w3.org/2000/svg" width="225" height="180">
<path d="M0 0 C74.25 0 148.5 0 225 0 C225 59.4 225 118.8 225 180 C150.75 180 76.5 180 0 180 C0 120.6 0 61.2 0 0 Z " fill="#FCFCFC" transform="translate(0,0)"/>
<path d="M0 0 C-0.66306152 0.31114746 -1.32612305 0.62229492 -2.00927734 0.94287109 C-34.46360857 13.88173165 -34.46360857 13.88173165 -59 37 C-59.51550475 40.60853326 -59.56884813 42.23424291 -57.375 45.1875 C-51.69533502 49.52198117 -46.5530318 50.58530266 -39.625 51.1875 C-38.37783203 51.3102832 -38.37783203 51.3102832 -37.10546875 51.43554688 C-35.07131913 51.63428563 -33.03577051 51.81861584 -31 52 C-37.56770775 58.02039877 -47.46303504 57.59605828 -55.84765625 57.375 C-62.06923575 56.9806051 -67.24765678 55.04130314 -71.48828125 50.35546875 C-74.14947177 46.30424058 -74.66120299 42.71107131 -74 38 C-70.28473261 27.45949421 -62.64029539 21.11012253 -53 16 C-11.85474748 -3.53379639 -11.85474748 -3.53379639 0 0 Z " fill="#34A0CF" transform="translate(151,41)"/>
<path d="M0 0 C3.32986878 3.4110851 4.86744996 5.76286628 5.375 10.5 C5.26286418 16.67868358 2.66779262 22.28318452 -1.64746094 26.67773438 C-6.44283346 31.0649393 -11.49987659 34.37647283 -17.25 37.375 C-18.13606934 37.8383374 -19.02213867 38.3016748 -19.93505859 38.77905273 C-34.8858308 46.25955458 -51.48293047 51.44849809 -68 54 C-64.37363152 51.16376467 -60.5544197 49.31564488 -56.375 47.4375 C-44.13278763 41.78357795 -32.23277866 35.51827079 -21.1875 27.75 C-20.63102783 27.36215332 -20.07455566 26.97430664 -19.5012207 26.57470703 C-15.64329387 23.76558899 -12.80359811 20.82308833 -10 17 C-9.38920172 13.06374441 -9.26964014 11.0517182 -11.5625 7.75 C-17.1743416 3.72098552 -22.70918448 2.4834848 -29.4375 1.8125 C-30.16904297 1.73064453 -30.90058594 1.64878906 -31.65429688 1.56445312 C-33.43514466 1.36658115 -35.21744927 1.18189293 -37 1 C-29.07261562 -7.68917507 -9.15795914 -5.77713041 0 0 Z " fill="#2E62A8" transform="translate(143,86)"/>
<path d="M0 0 C-0.66306152 0.31114746 -1.32612305 0.62229492 -2.00927734 0.94287109 C-27.50265317 12.25983472 -27.50265317 12.25983472 -50.46875 27.8203125 C-52 29 -52 29 -54 29 C-54 27.68 -54 26.36 -54 25 C-53.38125 24.855625 -52.7625 24.71125 -52.125 24.5625 C-49.96741678 24.06847775 -49.96741678 24.06847775 -48 23 C-48.70339566 20.49034386 -48.70339566 20.49034386 -50 18 C-52.03028196 17.30464127 -52.03028196 17.30464127 -54 17 C-41.06483686 10.79183733 -28.27154945 5.5065282 -14.4375 1.625 C-13.47255615 1.34970459 -12.5076123 1.07440918 -11.51342773 0.79077148 C-10.60020752 0.54270752 -9.6869873 0.29464355 -8.74609375 0.0390625 C-7.92810303 -0.18571777 -7.1101123 -0.41049805 -6.26733398 -0.64208984 C-3.84159824 -1.02500452 -2.31171829 -0.7667072 0 0 Z " fill="#3FA8D0" transform="translate(151,41)"/>
<path d="M0 0 C0 0.99 0 1.98 0 3 C-11.2611465 7.46325928 -11.2611465 7.46325928 -15.08203125 6.4453125 C-16.27382987 5.70817295 -17.45040836 4.94603776 -18.61328125 4.1640625 C-24.12805407 1.4743697 -30.9568657 1.55737646 -37 1 C-28.71387248 -8.08239203 -9.64842076 -5.19530348 0 0 Z " fill="#2F75AD" transform="translate(143,86)"/>
<path d="M0 0 C1.3609623 2.7219246 0.70366248 4.1831957 0.0625 7.125 C-0.13214844 8.03507812 -0.32679687 8.94515625 -0.52734375 9.8828125 C-0.68332031 10.58148438 -0.83929688 11.28015625 -1 12 C5.07593562 12.11251733 10.96445452 11.69260358 17 11 C14 13 14 13 12 14 C13.58941406 14.18175781 13.58941406 14.18175781 15.2109375 14.3671875 C16.59901324 14.53600752 17.98703119 14.70530308 19.375 14.875 C20.42300781 14.99294922 20.42300781 14.99294922 21.4921875 15.11328125 C26.7734375 15.7734375 26.7734375 15.7734375 29 18 C25.04 18.495 25.04 18.495 21 19 C21.99 19.66 22.98 20.32 24 21 C14.09366704 21.32778308 6.42762478 20.56223236 -2 15 C-4.35620437 11.46569344 -4.48991613 10.16428713 -4 6 C-2 2.625 -2 2.625 0 0 Z " fill="#DAF6FC" transform="translate(95,72)"/>
<path d="M0 0 C0 2 0 4 0 6 C-0.78375 6.226875 -1.5675 6.45375 -2.375 6.6875 C-5.21535469 7.76670768 -5.21535469 7.76670768 -6.1875 10.5625 C-6.455625 11.366875 -6.72375 12.17125 -7 13 C-7.99 13.495 -7.99 13.495 -9 14 C-9.66 12.68 -10.32 11.36 -11 10 C-11.66 10 -12.32 10 -13 10 C-13.33 10.66 -13.66 11.32 -14 12 C-13.34 12 -12.68 12 -12 12 C-11.875 17.75 -11.875 17.75 -13 20 C-13.66 20 -14.32 20 -15 20 C-15.33 20.99 -15.66 21.98 -16 23 C-16.99 22.34 -17.98 21.68 -19 21 C-19 20.01 -19 19.02 -19 18 C-18.34 17.67 -17.68 17.34 -17 17 C-17.33 14.36 -17.66 11.72 -18 9 C-17.45730469 8.60167969 -16.91460937 8.20335938 -16.35546875 7.79296875 C-15.64003906 7.26316406 -14.92460938 6.73335938 -14.1875 6.1875 C-13.47980469 5.66542969 -12.77210937 5.14335938 -12.04296875 4.60546875 C-10.00260796 3.07825497 -10.00260796 3.07825497 -8.42578125 1.36328125 C-5.6345282 -1.3056155 -3.43233791 -1.06520832 0 0 Z " fill="#2AA4D8" transform="translate(103,59)"/>
<path d="M0 0 C-4.05798447 1.98852418 -8.12211149 3.96416266 -12.1875 5.9375 C-13.33798828 6.50146484 -14.48847656 7.06542969 -15.67382812 7.64648438 C-16.78564453 8.18466797 -17.89746094 8.72285156 -19.04296875 9.27734375 C-20.06414795 9.77484131 -21.08532715 10.27233887 -22.13745117 10.78491211 C-24.79060301 11.91111567 -27.16150655 12.55997652 -30 13 C-29.67 12.34 -29.34 11.68 -29 11 C-31.42130331 9.78934835 -32.48293659 10.05397467 -35.125 10.4375 C-37.043125 10.7159375 -37.043125 10.7159375 -39 11 C-33.29713231 5.29713231 -22.12735024 3.8111831 -14.5625 1.6875 C-13.59086914 1.40874023 -12.61923828 1.12998047 -11.61816406 0.84277344 C-10.69358398 0.58915039 -9.76900391 0.33552734 -8.81640625 0.07421875 C-7.98568604 -0.15692627 -7.15496582 -0.38807129 -6.29907227 -0.6262207 C-3.85187726 -1.02408155 -2.3316756 -0.77834206 0 0 Z " fill="#399FC8" transform="translate(151,41)"/>
<path d="M0 0 C0 0.99 0 1.98 0 3 C-4.616613 7.53377002 -9.98478085 10.39928886 -15.6875 13.375 C-16.54150391 13.83777344 -17.39550781 14.30054687 -18.27539062 14.77734375 C-19.09587891 15.20917969 -19.91636719 15.64101562 -20.76171875 16.0859375 C-21.50381592 16.4782959 -22.24591309 16.8706543 -23.01049805 17.27490234 C-25 18 -25 18 -28 17 C-27.34 16.34 -26.68 15.68 -26 15 C-26 14.67 -26 14.34 -26 14 C-24.02 13.67 -22.04 13.34 -20 13 C-20 12.01 -20 11.02 -20 10 C-20 9.34 -20 8.68 -20 8 C-14.25 7 -14.25 7 -12 7 C-11.77390663 4.87635519 -11.77390663 4.87635519 -13.5 3.375 C-13.995 2.92125 -14.49 2.4675 -15 2 C-8.375 0.875 -8.375 0.875 -5 2 C-2.3430809 1.12085312 -2.3430809 1.12085312 0 0 Z " fill="#265498" transform="translate(141,110)"/>
<path d="M0 0 C0.66 0.33 1.32 0.66 2 1 C2 1.66 2 2.32 2 3 C1.01 3.495 1.01 3.495 0 4 C0.66 4.66 1.32 5.32 2 6 C1.28972656 6.19335938 0.57945313 6.38671875 -0.15234375 6.5859375 C-1.07144531 6.84632813 -1.99054688 7.10671875 -2.9375 7.375 C-4.31228516 7.75785156 -4.31228516 7.75785156 -5.71484375 8.1484375 C-8.16745087 8.76660104 -8.16745087 8.76660104 -9 11 C-11.86536668 12.17049293 -14.88941217 12.88014921 -17.875 13.6875 C-18.70386719 13.92533203 -19.53273438 14.16316406 -20.38671875 14.40820312 C-21.18464844 14.62798828 -21.98257813 14.84777344 -22.8046875 15.07421875 C-23.53671387 15.27619873 -24.26874023 15.47817871 -25.02294922 15.6862793 C-27 16 -27 16 -30 15 C-29.410979 14.72325439 -28.82195801 14.44650879 -28.21508789 14.16137695 C-25.49603826 12.88162052 -22.77926956 11.59708923 -20.0625 10.3125 C-18.67321289 9.65991211 -18.67321289 9.65991211 -17.25585938 8.99414062 C-11.94780526 6.4797992 -6.81225218 3.83409646 -1.77514648 0.80932617 C-1.18934814 0.54224854 -0.6035498 0.2751709 0 0 Z " fill="#3476AB" transform="translate(105,124)"/>
<path d="M0 0 C0.33 0.99 0.66 1.98 1 3 C0.06027344 3.18175781 0.06027344 3.18175781 -0.8984375 3.3671875 C-1.71570313 3.53476563 -2.53296875 3.70234375 -3.375 3.875 C-4.59316406 4.11863281 -4.59316406 4.11863281 -5.8359375 4.3671875 C-8.18673923 4.86658932 -8.18673923 4.86658932 -10 7 C-13.625 7.125 -13.625 7.125 -17 7 C-16.67 8.98 -16.34 10.96 -16 13 C-17.65 13 -19.3 13 -21 13 C-21 12.34 -21 11.68 -21 11 C-23.97 10.67 -26.94 10.34 -30 10 C-26.77420912 8.38710456 -23.828365 7.19020983 -20.4296875 6.0546875 C-19.36878906 5.70019531 -18.30789062 5.34570312 -17.21484375 4.98046875 C-16.11269531 4.61566406 -15.01054688 4.25085938 -13.875 3.875 C-12.76511719 3.50246094 -11.65523437 3.12992188 -10.51171875 2.74609375 C-8.92423828 2.21822266 -8.92423828 2.21822266 -7.3046875 1.6796875 C-6.33515137 1.35726074 -5.36561523 1.03483398 -4.36669922 0.70263672 C-2 0 -2 0 0 0 Z " fill="#E6F7FB" transform="translate(112,129)"/>
<path d="M0 0 C0.66 0.33 1.32 0.66 2 1 C2.52749439 4.61710439 2.71085327 6.82214604 0.79296875 10 C-5.0527515 17.00938822 -12.69665511 22.28534571 -21 26 C-18.93989542 21.40438209 -16.61787682 19.02032111 -12 17 C-11.01 16.67 -10.02 16.34 -9 16 C-8.67 15.01 -8.34 14.02 -8 13 C-7.195625 12.731875 -6.39125 12.46375 -5.5625 12.1875 C-2.72575958 11.21446317 -2.72575958 11.21446317 -1.75 8.1875 C-1.10925227 5.46432213 -0.48617121 2.75497017 0 0 Z " fill="#E1F5FB" transform="translate(132,95)"/>
<path d="M0 0 C-3.36424804 3.66109346 -6.29759799 6.27258702 -11 8 C-14.3125 7.8125 -14.3125 7.8125 -17 7 C-17.33 6.34 -17.66 5.68 -18 5 C-17.195625 4.54625 -16.39125 4.0925 -15.5625 3.625 C-12.91143428 2.25274335 -12.91143428 2.25274335 -12 0 C-7.79290296 -1.73290038 -3.88461998 -2.91346498 0 0 Z " fill="#24A4D8" transform="translate(124,52)"/>
<path d="M0 0 C0.99 0.33 1.98 0.66 3 1 C3.625 3.8125 3.625 3.8125 4 7 C3.01 8.485 3.01 8.485 2 10 C1.54745248 13.5449556 1.46511045 15.27995638 3.625 18.1875 C6.27694418 20.21135213 8.9677148 21.62168855 12 23 C8.44757118 24.18414294 7.30169438 23.69535532 3.8125 22.5625 C2.46091797 22.13130859 2.46091797 22.13130859 1.08203125 21.69140625 C0.39496094 21.46324219 -0.29210937 21.23507813 -1 21 C-1.33 17.7 -1.66 14.4 -2 11 C-1.34 11 -0.68 11 0 11 C0.33 8.36 0.66 5.72 1 3 C0.34 3 -0.32 3 -1 3 C-0.67 2.01 -0.34 1.02 0 0 Z " fill="#3DA2C6" transform="translate(90,68)"/>
<path d="M0 0 C1.175625 0.4640625 1.175625 0.4640625 2.375 0.9375 C2.375 1.5975 2.375 2.2575 2.375 2.9375 C-0.46362303 4.82991536 -2.55984939 6.04661299 -6.02734375 5.69140625 C-8.25636155 5.18080976 -10.44041847 4.61229296 -12.625 3.9375 C-12.625 2.6175 -12.625 1.2975 -12.625 -0.0625 C-13.615 -0.3925 -14.605 -0.7225 -15.625 -1.0625 C-11.11137239 -3.31931381 -4.62911816 -1.35681049 0 0 Z " fill="#26A6DD" transform="translate(99.625,91.0625)"/>
<path d="M0 0 C1.98 0 3.96 0 6 0 C1.47692308 3.675 1.47692308 3.675 -0.9375 5.3203125 C-6.92036753 9.46752749 -10.68261485 14.04784454 -13 21 C-13.13973952 24.84283684 -13.17851619 28.3171369 -12 32 C-12.99 31.67 -13.98 31.34 -15 31 C-15.55353075 17.18223235 -15.55353075 17.18223235 -12 12 C-11.34 12 -10.68 12 -10 12 C-9.79375 11.278125 -9.5875 10.55625 -9.375 9.8125 C-7.54751837 6.0744694 -5.29561194 4.50753083 -2 2 C-1.34 2.33 -0.68 2.66 0 3 C0 2.01 0 1.02 0 0 Z " fill="#D7F7FC" transform="translate(91,58)"/>
<path d="M0 0 C3.08236365 2.78407039 3.95206337 3.80825346 5 8 C1.37 7.67 -2.26 7.34 -6 7 C-6 7.66 -6 8.32 -6 9 C-7.65 8.67 -9.3 8.34 -11 8 C-11.33 7.01 -11.66 6.02 -12 5 C-8.04 4.01 -4.08 3.02 0 2 C0 1.34 0 0.68 0 0 Z " fill="#326EA9" transform="translate(143,87)"/>
<path d="M0 0 C0.969375 0.495 1.93875 0.99 2.9375 1.5 C7.45193371 3.20401702 11.73498382 3.30421932 16.5 3.3125 C17.21148193 3.31765625 17.92296387 3.3228125 18.65600586 3.328125 C23.72436386 3.26291465 28.11710609 2.3500374 33 1 C34.99601306 0.6435691 36.994845 0.30077325 39 0 C36.77644774 2.5570851 35.24981807 3.24170912 32 4 C31.67 4.66 31.34 5.32 31 6 C27.52099751 6.08825361 24.04228883 6.14080635 20.5625 6.1875 C19.58861328 6.21263672 18.61472656 6.23777344 17.61132812 6.26367188 C11.17176479 6.32828288 5.95516804 5.47643415 0 3 C0 2.01 0 1.02 0 0 Z " fill="#CFF6FD" transform="translate(83,94)"/>
<path d="M0 0 C2.22574335 0.22451458 4.45581519 0.40782878 6.6875 0.5625 C7.86699219 0.64628906 9.04648438 0.73007813 10.26171875 0.81640625 C11.61716797 0.90728516 11.61716797 0.90728516 13 1 C11.02 1.99 11.02 1.99 9 3 C9.99 3.66 10.98 4.32 12 5 C5.2718373 5.22262303 -0.53991163 4.95021536 -7 3 C-6.67 2.01 -6.34 1.02 -6 0 C-3 -1 -3 -1 0 0 Z " fill="#E9F9FC" transform="translate(107,88)"/>
<path d="M0 0 C1.20366211 0.00483398 1.20366211 0.00483398 2.43164062 0.00976562 C3.68170898 0.02233398 3.68170898 0.02233398 4.95703125 0.03515625 C5.80201172 0.03966797 6.64699219 0.04417969 7.51757812 0.04882812 C9.6015928 0.06060222 11.68557102 0.07853735 13.76953125 0.09765625 C14.09953125 0.75765625 14.42953125 1.41765625 14.76953125 2.09765625 C9.08375309 4.62466877 2.88674451 4.88999724 -3.23046875 4.09765625 C-5.59765625 2.578125 -5.59765625 2.578125 -7.23046875 1.09765625 C-4.46481493 0.17577164 -2.84763173 -0.02019597 0 0 Z " fill="#2188CA" transform="translate(119.23046875,83.90234375)"/>
<path d="M0 0 C-3.60178588 2.40119059 -6.50866369 2.43771322 -10.6875 2.625 C-11.38939453 2.66367188 -12.09128906 2.70234375 -12.81445312 2.7421875 C-14.54254655 2.8362334 -16.27123675 2.9191968 -18 3 C-17.01 3.66 -16.02 4.32 -15 5 C-18.96 5 -22.92 5 -27 5 C-20.02335622 -1.97664378 -9.19558968 -0.20087453 0 0 Z " fill="#458EB5" transform="translate(133,82)"/>
<path d="M0 0 C2.97 0.495 2.97 0.495 6 1 C6.125 6.75 6.125 6.75 5 9 C4.34 9 3.68 9 3 9 C2.67 9.99 2.34 10.98 2 12 C1.01 11.34 0.02 10.68 -1 10 C-1 9.01 -1 8.02 -1 7 C-0.34 6.67 0.32 6.34 1 6 C0.67 4.02 0.34 2.04 0 0 Z " fill="#21A7E3" transform="translate(85,70)"/>
<path d="M0 0 C0.99580078 0.59941406 0.99580078 0.59941406 2.01171875 1.2109375 C-0.71625788 3.93891413 -3.79726682 4.4529074 -7.42578125 5.3984375 C-8.10705078 5.58857422 -8.78832031 5.77871094 -9.49023438 5.97460938 C-12.84978898 6.86632269 -14.62351737 7.33252546 -17.98828125 6.2109375 C-15.60177447 4.98016042 -13.20711032 3.77679058 -10.80078125 2.5859375 C-10.12724609 2.2353125 -9.45371094 1.8846875 -8.75976562 1.5234375 C-5.44411737 -0.09395189 -3.63846622 -0.96074533 0 0 Z " fill="#3570A2" transform="translate(92.98828125,132.7890625)"/>
<path d="M0 0 C0.33 1.32 0.66 2.64 1 4 C-1.43407005 4.86524753 -3.87143184 5.71742865 -6.3125 6.5625 C-7.00279297 6.80935547 -7.69308594 7.05621094 -8.40429688 7.31054688 C-13.66015625 9.11328125 -13.66015625 9.11328125 -17 8 C-16.18595703 7.61908203 -16.18595703 7.61908203 -15.35546875 7.23046875 C-14.64003906 6.88628906 -13.92460938 6.54210937 -13.1875 6.1875 C-12.47980469 5.85105469 -11.77210937 5.51460937 -11.04296875 5.16796875 C-8.98009147 3.98861826 -7.63186126 2.70667438 -6 1 C-4 0 -4 0 0 0 Z " fill="#2764A3" transform="translate(113,125)"/>
<path d="M0 0 C-13.44874715 7.07289294 -13.44874715 7.07289294 -21 5 C-18.28432704 2.28432704 -15.23593892 1.75968758 -11.625 0.8125 C-10.95210937 0.62236328 -10.27921875 0.43222656 -9.5859375 0.23632812 C-6.09905932 -0.69373485 -3.42363738 -1.37823351 0 0 Z " fill="#4D9DBD" transform="translate(151,41)"/>
<path d="M0 0 C1.5625 1.25 1.5625 1.25 3 3 C2.8125 5.125 2.8125 5.125 2 7 C1.01 7.495 1.01 7.495 0 8 C-1.13350534 10.01669827 -1.13350534 10.01669827 -2 12 C-2 10.68 -2 9.36 -2 8 C-2.99 8.33 -3.98 8.66 -5 9 C-3.90931332 5.22454612 -3.0916909 2.52956528 0 0 Z " fill="#2EA4D7" transform="translate(84,70)"/>
<path d="M0 0 C1.65 0 3.3 0 5 0 C5 0.99 5 1.98 5 3 C2.91796875 4.7890625 2.91796875 4.7890625 0.1875 6.625 C-0.70582031 7.23601562 -1.59914063 7.84703125 -2.51953125 8.4765625 C-5 10 -5 10 -8 11 C-8 9.68 -8 8.36 -8 7 C-7.38125 6.855625 -6.7625 6.71125 -6.125 6.5625 C-3.96741678 6.06847775 -3.96741678 6.06847775 -2 5 C-1.27840576 3.35636866 -0.60648579 1.68949614 0 0 Z " fill="#339CC8" transform="translate(105,59)"/>
<path d="M0 0 C8.91 0 17.82 0 27 0 C27 0.99 27 1.98 27 3 C26.27981689 2.83701416 25.55963379 2.67402832 24.81762695 2.50610352 C22.10597883 2.01903597 19.66780647 1.88547358 16.91796875 1.90234375 C15.98662109 1.90556641 15.05527344 1.90878906 14.09570312 1.91210938 C12.65614258 1.92467773 12.65614258 1.92467773 11.1875 1.9375 C10.20845703 1.94201172 9.22941406 1.94652344 8.22070312 1.95117188 C5.81373889 1.96291316 3.40690143 1.97933581 1 2 C0.67 1.34 0.34 0.68 0 0 Z " fill="#E0F7FC" transform="translate(111,81)"/>
<path d="M0 0 C0 0.66 0 1.32 0 2 C1.65 2.33 3.3 2.66 5 3 C1.79663178 5.83374881 -0.78087253 6.5205537 -5 7 C-5 5 -5 3 -5 1 C-2 0 -2 0 0 0 Z " fill="#ECF6F6" transform="translate(102,120)"/>
<path d="M0 0 C-0.33 0.66 -0.66 1.32 -1 2 C-2.59877238 2.27213147 -4.20127553 2.53022428 -5.8125 2.71484375 C-9.91386638 3.24948615 -13.95179766 4.16103654 -18 5 C-17.67 3.68 -17.34 2.36 -17 1 C-11.29014022 0.25983299 -5.75813575 -0.10469338 0 0 Z " fill="#E1F8FB" transform="translate(152,39)"/>
<path d="M0 0 C2 2 2 2 2.3125 4.875 C1.9736202 8.26379801 1.27183419 9.53884629 -1 12 C-1.66 11.67 -2.32 11.34 -3 11 C-3 11.66 -3 12.32 -3 13 C-4.98 13.99 -4.98 13.99 -7 15 C-5.88438119 12.48985768 -4.75578373 10.71878127 -2.9375 8.625 C-0.75605723 5.66949689 -0.33630309 3.61525824 0 0 Z " fill="#3B6495" transform="translate(134,97)"/>
<path d="M0 0 C-2 3 -2 3 -4.1640625 3.51171875 C-4.97617188 3.56972656 -5.78828125 3.62773438 -6.625 3.6875 C-7.85089844 3.78611328 -7.85089844 3.78611328 -9.1015625 3.88671875 C-9.72804688 3.92410156 -10.35453125 3.96148437 -11 4 C-10.67 3.01 -10.34 2.02 -10 1 C-9.34 1 -8.68 1 -8 1 C-8 0.34 -8 -0.32 -8 -1 C-4.59745511 -2.2151946 -3.06748874 -1.86240388 0 0 Z " fill="#25A5DF" transform="translate(124,52)"/>
<path d="M0 0 C0.99 0.33 1.98 0.66 3 1 C3.625 3.8125 3.625 3.8125 4 7 C3.01 8.485 3.01 8.485 2 10 C1.60612212 12.32387947 1.26513915 14.65793749 1 17 C0.67 17 0.34 17 0 17 C-1.33500455 11.65998179 -0.512545 8.16044765 1 3 C0.34 3 -0.32 3 -1 3 C-0.67 2.01 -0.34 1.02 0 0 Z " fill="#339CC4" transform="translate(90,68)"/>
<path d="M0 0 C0.66 0.66 1.32 1.32 2 2 C0.04486839 2.696553 -1.91422476 3.38199565 -3.875 4.0625 C-4.96554688 4.44535156 -6.05609375 4.82820313 -7.1796875 5.22265625 C-10 6 -10 6 -12 5 C-5.78383642 -0.92015579 -5.78383642 -0.92015579 0 0 Z " fill="#E2F7FB" transform="translate(130,43)"/>
<path d="M0 0 C-1.80864053 3.19171858 -2.93488131 3.9751365 -6.4375 5.3125 C-9.75007003 5.9517679 -10.93777189 5.93549386 -14 5 C-12.23628182 3.96692229 -10.46374967 2.94887951 -8.6875 1.9375 C-7.70136719 1.36902344 -6.71523437 0.80054688 -5.69921875 0.21484375 C-3 -1 -3 -1 0 0 Z " fill="#D7F7FB" transform="translate(127,54)"/>
<path d="M0 0 C0.66 0.99 1.32 1.98 2 3 C1.67 3.33 1.34 3.66 1 4 C1.66 4.66 2.32 5.32 3 6 C0.69 6.33 -1.62 6.66 -4 7 C-4 5.68 -4 4.36 -4 3 C-2 1.25 -2 1.25 0 0 Z " fill="#2B68AE" transform="translate(120,117)"/>
<path d="M0 0 C0.66 0 1.32 0 2 0 C1.66009167 5.37992836 1.31442207 9.53273547 -2 14 C-2.99 13.67 -3.98 13.34 -5 13 C-4.67 12.01 -4.34 11.02 -4 10 C-3.01 10 -2.02 10 -1 10 C-0.67 6.7 -0.34 3.4 0 0 Z " fill="#26467E" transform="translate(146,95)"/>
<path d="M0 0 C0 0.99 0 1.98 0 3 C-2.64 3.66 -5.28 4.32 -8 5 C-8.33 3.68 -8.66 2.36 -9 1 C-6.04335481 -0.4783226 -3.25770263 -0.06032783 0 0 Z " fill="#2877BC" transform="translate(143,86)"/>
<path d="M0 0 C1.41750563 0.11509661 2.83401169 0.24253658 4.25 0.375 C5.03890625 0.44460937 5.8278125 0.51421875 6.640625 0.5859375 C9.085877 1.01507113 10.84836903 1.78600638 13 3 C13 3.66 13 4.32 13 5 C10 6 10 6 7.51953125 5.00390625 C6.62621094 4.52824219 5.73289062 4.05257812 4.8125 3.5625 C3.91144531 3.08941406 3.01039062 2.61632812 2.08203125 2.12890625 C1.39496094 1.75636719 0.70789063 1.38382812 0 1 C0 0.67 0 0.34 0 0 Z " fill="#3E81B2" transform="translate(120,87)"/>
<path d="M0 0 C0.66 0 1.32 0 2 0 C2 0.99 2 1.98 2 3 C4.97 3 7.94 3 11 3 C8 6 8 6 5.95703125 6.07421875 C2.97851562 5.53710938 2.97851562 5.53710938 0 5 C0 3.35 0 1.7 0 0 Z " fill="#FDF8F0" transform="translate(94,79)"/>
<path d="M0 0 C0 0.99 0 1.98 0 3 C-5.34883721 8 -5.34883721 8 -8 8 C-8.33 7.01 -8.66 6.02 -9 5 C-7.68 5 -6.36 5 -5 5 C-5 4.01 -5 3.02 -5 2 C-3.35 1.34 -1.7 0.68 0 0 Z " fill="#284885" transform="translate(141,110)"/>
<path d="M0 0 C0.33 0 0.66 0 1 0 C1 1.98 1 3.96 1 6 C1.66 6 2.32 6 3 6 C3.0825 6.94875 3.165 7.8975 3.25 8.875 C3.63752715 12.09834868 3.63752715 12.09834868 6 13.25 C6.66 13.4975 7.32 13.745 8 14 C8.33 14.66 8.66 15.32 9 16 C5.18220043 15.04555011 4.0435405 14.06001529 1.6875 10.8125 C-0.21328662 7.17886775 -0.33430978 4.09529479 0 0 Z " fill="#489CBE" transform="translate(77,79)"/>
<path d="M0 0 C0.33 0.99 0.66 1.98 1 3 C0.01 3.66 -0.98 4.32 -2 5 C-1.01 6.485 -1.01 6.485 0 8 C-1.32 8.33 -2.64 8.66 -4 9 C-4.66 7.68 -5.32 6.36 -6 5 C-4.06745228 2.9754262 -2.36841312 1.57894208 0 0 Z " fill="#2D559B" transform="translate(144,102)"/>
<path d="M0 0 C-0.33 1.32 -0.66 2.64 -1 4 C-3.31 4.66 -5.62 5.32 -8 6 C-8.66 5.34 -9.32 4.68 -10 4 C-8.71086513 3.32845067 -7.41859796 2.66291141 -6.125 2 C-5.40570313 1.62875 -4.68640625 1.2575 -3.9453125 0.875 C-2 0 -2 0 0 0 Z " fill="#DAF6FC" transform="translate(136,48)"/>
<path d="M0 0 C0.99 1.32 1.98 2.64 3 4 C2.01 4.33 1.02 4.66 0 5 C-0.66 5.66 -1.32 6.32 -2 7 C-3.32 6.34 -4.64 5.68 -6 5 C-6 4.34 -6 3.68 -6 3 C-4.02 2.01 -2.04 1.02 0 0 Z " fill="#347CB8" transform="translate(97,128)"/>
<path d="M0 0 C2 1 2 1 4 3 C4.66 3.33 5.32 3.66 6 4 C6 4.66 6 5.32 6 6 C4.02 6.99 4.02 6.99 2 8 C2 7.34 2 6.68 2 6 C1.01 5.67 0.02 5.34 -1 5 C-1 2 -1 2 0 0 Z " fill="#3668B1" transform="translate(125,111)"/>
<path d="M0 0 C0 0.99 0 1.98 0 3 C-2.75 3.6875 -2.75 3.6875 -6 4 C-8.375 2.5625 -8.375 2.5625 -10 1 C-6.52674819 -0.1577506 -3.63932552 -0.06866652 0 0 Z " fill="#3094CC" transform="translate(122,84)"/>
<path d="M0 0 C-0.66 0.66 -1.32 1.32 -2 2 C-2.53625 1.855625 -3.0725 1.71125 -3.625 1.5625 C-7.22051589 0.71093045 -10.35817138 1.45372571 -14 2 C-9.58539595 -2.41460405 -5.51967722 -2.36557595 0 0 Z " fill="#49A2CA" transform="translate(126,50)"/>
<path d="M0 0 C0.99 1.32 1.98 2.64 3 4 C-2.94 4.495 -2.94 4.495 -9 5 C-5.7895201 2.59214008 -3.64991166 1.31802365 0 0 Z " fill="#D8F7FA" transform="translate(149,41)"/>
<path d="M0 0 C0.33 1.32 0.66 2.64 1 4 C-0.65 5.32 -2.3 6.64 -4 8 C-6 7 -6 7 -7 5 C-6.030625 4.360625 -5.06125 3.72125 -4.0625 3.0625 C-1.23963731 1.3034741 -1.23963731 1.3034741 0 0 Z " fill="#E6EFFA" transform="translate(140,113)"/>
<path d="M0 0 C1.27875 0.103125 2.5575 0.20625 3.875 0.3125 C4.95394531 0.39951172 4.95394531 0.39951172 6.0546875 0.48828125 C8 1 8 1 10 4 C6.53058454 3.54177532 3.32604951 3.10868317 0 2 C0 1.34 0 0.68 0 0 Z " fill="#E9F8FC" transform="translate(121,90)"/>
<path d="M0 0 C0.33 0.99 0.66 1.98 1 3 C-1.75078884 3.91692961 -3.35948913 4.10886083 -6.1875 4.0625 C-8.0746875 4.0315625 -8.0746875 4.0315625 -10 4 C-6.86268382 1.90845588 -3.85464592 0 0 0 Z " fill="#D2E8F3" transform="translate(112,129)"/>
<path d="M0 0 C-1.7015625 0.680625 -1.7015625 0.680625 -3.4375 1.375 C-7.04721692 2.57095806 -7.04721692 2.57095806 -8 5 C-9.32 4.34 -10.64 3.68 -12 3 C-10.75823305 2.29773859 -9.50614401 1.61370891 -8.25 0.9375 C-7.20585938 0.36322266 -7.20585938 0.36322266 -6.140625 -0.22265625 C-3.63859372 -1.1312406 -2.4667645 -0.88336837 0 0 Z " fill="#DFF9FD" transform="translate(122,95)"/>
<path d="M0 0 C0.66 0.33 1.32 0.66 2 1 C1.67 2.32 1.34 3.64 1 5 C-1.31 5.33 -3.62 5.66 -6 6 C-4 4 -2 2 0 0 Z " fill="#D5F6FC" transform="translate(102,66)"/>
<path d="M0 0 C0.33 0.99 0.66 1.98 1 3 C-2.63 3.66 -6.26 4.32 -10 5 C-3.33333333 0 -3.33333333 0 0 0 Z " fill="#577E92" transform="translate(85,135)"/>
<path d="M0 0 C0.99 0.33 1.98 0.66 3 1 C2.67 1.99 2.34 2.98 2 4 C-0.31 4.33 -2.62 4.66 -5 5 C-3.35 3.35 -1.7 1.7 0 0 Z " fill="#346894" transform="translate(123,113)"/>
<path d="M0 0 C-0.33 0.99 -0.66 1.98 -1 3 C-3.31 3 -5.62 3 -8 3 C-8 2.34 -8 1.68 -8 1 C-5.29120665 -0.35439668 -2.99066732 -0.06501451 0 0 Z " fill="#FCF8EF" transform="translate(112,99)"/>
<path d="M0 0 C0.598125 0.350625 1.19625 0.70125 1.8125 1.0625 C0.4925 1.3925 -0.8275 1.7225 -2.1875 2.0625 C-2.1875 2.7225 -2.1875 3.3825 -2.1875 4.0625 C-3.5075 3.4025 -4.8275 2.7425 -6.1875 2.0625 C-4.66896708 -0.97456585 -3.05066334 -1.30742714 0 0 Z " fill="#E6F3EF" transform="translate(106.1875,87.9375)"/>
<path d="M0 0 C0.66 0.33 1.32 0.66 2 1 C0.875 2.9375 0.875 2.9375 -1 5 C-4.1875 5.75 -4.1875 5.75 -7 6 C-4.74259377 3.66475218 -2.7194239 1.81294927 0 0 Z " fill="#D3F2F9" transform="translate(111,60)"/>
<path d="M0 0 C-3.63 1.32 -7.26 2.64 -11 4 C-11 3.01 -11 2.02 -11 1 C-4.5 -1.125 -4.5 -1.125 0 0 Z " fill="#DCF8FE" transform="translate(117,50)"/>
<path d="M0 0 C-1.4562545 0.67119549 -2.91507867 1.33681807 -4.375 2 C-5.59316406 2.556875 -5.59316406 2.556875 -6.8359375 3.125 C-9 4 -9 4 -11 4 C-10.67 3.01 -10.34 2.02 -10 1 C-6.19730268 -0.6900877 -3.94727832 -1.19873962 0 0 Z " fill="#5C99A7" transform="translate(151,41)"/>
<path d="M0 0 C-0.99 1.485 -0.99 1.485 -2 3 C-5.625 3.1875 -5.625 3.1875 -9 3 C-7.14340032 -0.71319936 -3.69365381 -0.09982848 0 0 Z " fill="#DCF2F8" transform="translate(104,133)"/>
<path d="M0 0 C-2.09782787 2.09782787 -3.3799207 2.6509396 -6.125 3.625 C-6.84945312 3.88539063 -7.57390625 4.14578125 -8.3203125 4.4140625 C-9.15175781 4.70410156 -9.15175781 4.70410156 -10 5 C-10 4.34 -10 3.68 -10 3 C-9.34 3 -8.68 3 -8 3 C-8 2.34 -8 1.68 -8 1 C-5.29120665 -0.35439668 -2.99066732 -0.06501451 0 0 Z " fill="#D8F2FA" transform="translate(88,133)"/>
<path d="M0 0 C2 2 2 2 2 5 C-0.5 6.6875 -0.5 6.6875 -3 8 C-3 4.42424104 -1.91159393 2.94704065 0 0 Z " fill="#E3ECF9" transform="translate(145,106)"/>
<path d="M0 0 C2.64 0 5.28 0 8 0 C8.33 0.99 8.66 1.98 9 3 C6.03 2.67 3.06 2.34 0 2 C0 1.34 0 0.68 0 0 Z " fill="#2069BA" transform="translate(137,94)"/>
<path d="M0 0 C0.99 0.99 1.98 1.98 3 3 C2.67 3.99 2.34 4.98 2 6 C1.67 5.34 1.34 4.68 1 4 C-0.32 4.33 -1.64 4.66 -3 5 C-2.67 4.01 -2.34 3.02 -2 2 C-1.34 2 -0.68 2 0 2 C0 1.34 0 0.68 0 0 Z " fill="#365D8D" transform="translate(144,88)"/>
<path d="M0 0 C0.66 0.33 1.32 0.66 2 1 C-3.75 6 -3.75 6 -6 6 C-6 4.68 -6 3.36 -6 2 C-5.38125 1.855625 -4.7625 1.71125 -4.125 1.5625 C-1.96741678 1.06847775 -1.96741678 1.06847775 0 0 Z " fill="#3895B5" transform="translate(103,64)"/>
<path d="M0 0 C-5.2734375 3.22265625 -5.2734375 3.22265625 -7 4 C-7.66 3.67 -8.32 3.34 -9 3 C-7 0 -7 0 -4.5 -0.75 C-2 -1 -2 -1 0 0 Z " fill="#3997C0" transform="translate(120,56)"/>
</svg>
